<svg id="Layer_1" data-name="Layer 1" xmlns="http://www.w3.org/2000/svg" viewBox="0 0 271.47 237.29"><title>flower-illustrations</title><path d="M53.28,105V152H47.23v-48.6a13.22,13.22,0,0,0,2.73,1A16.52,16.52,0,0,0,53.28,105Z" transform="translate(-23.94 -23.94)" fill="#0f8141"/><path d="M51.47,133A2,2,0,0,1,49.52,135a1.86,1.86,0,0,1-1.26-.37,10.61,10.61,0,0,1-1,.37,18.15,18.15,0,0,1-5.76,1,14.69,14.69,0,0,1-6.12-1.33C28,131.38,24.87,123,24.72,122.63l-.78-2.21,2.25-.45c8.75-1.84,15.47-1,20,2.62a14.05,14.05,0,0,1,1.07,1A14.51,14.51,0,0,1,51.47,133Z" transform="translate(-23.94 -23.94)" fill="#0f8141"/><path d="M47.71,70.45a5.6,5.6,0,0,0-1.85,1.11,9.91,9.91,0,0,0-1.55,1.69,34,34,0,0,0-4.06-9.63l3.4-2.18A38,38,0,0,1,47.71,70.45Z" transform="translate(-23.94 -23.94)" fill="#f68c1f"/><path d="M56,62.77c-.63,1.07-1.22,2.18-1.81,3.29a5.76,5.76,0,0,0-.7,1.58,6.37,6.37,0,0,0-.08,1.3V70a6.06,6.06,0,0,0-1.58-.37,7.11,7.11,0,0,0-2.48.19v-1a15.81,15.81,0,0,1,.19-2.14,11.77,11.77,0,0,1,1.07-2.62c.62-1.11,1.22-2.25,1.84-3.36Z" transform="translate(-23.94 -23.94)" fill="#f68c1f"/><path d="M66.53,63.84a47.35,47.35,0,0,1-4.21,9.38A8.25,8.25,0,0,0,60,74.43a7.83,7.83,0,0,0-2.5,3.92,3.5,3.5,0,0,0,0-.63,14.4,14.4,0,0,0-.44-3.65,47.66,47.66,0,0,0,5.64-11.48Z" transform="translate(-23.94 -23.94)" fill="#f68c1f"/><path d="M66.79,100.3A18.43,18.43,0,0,1,54.46,105a6.06,6.06,0,0,1-1.18-.08,16.52,16.52,0,0,1-3.32-.48,13.22,13.22,0,0,1-2.73-1,19.81,19.81,0,0,1-5.13-3.32A36.72,36.72,0,0,1,34,89.6a30.57,30.57,0,0,1-3.66-12.1c-.22-3.62.74-5.83,2.81-6.53,3.17-1.15,7.16,2.32,9.59,5a17.76,17.76,0,0,1,1.55-2.7,9.91,9.91,0,0,1,1.55-1.69,5.6,5.6,0,0,1,1.85-1.11,5.28,5.28,0,0,1,1.62-.59,7.11,7.11,0,0,1,2.48-.19,6.06,6.06,0,0,1,1.58.37,5.37,5.37,0,0,1,2.55,1.85,6.63,6.63,0,0,1,1.11,2.18,14.4,14.4,0,0,1,.44,3.65,3.5,3.5,0,0,1,0,.63A7.83,7.83,0,0,1,60,74.43a8.25,8.25,0,0,1,2.29-1.21,5.51,5.51,0,0,1,4.14.11c4.06,1.7,5.86,7.78,6.31,11.11A18,18,0,0,1,66.79,100.3Z" transform="translate(-23.94 -23.94)" fill="#5c459c"/><rect x="64.34" y="175.03" width="6.06" height="62.27" fill="#0f8141"/><path d="M117.6,229.64l-.78,2.18c-.11.37-3.21,8.78-10.59,12.07a14.75,14.75,0,0,1-6.16,1.33,18.24,18.24,0,0,1-6.79-1.37,2,2,0,0,1-1.22.41,2.07,2.07,0,0,1-2-2.07,14.5,14.5,0,0,1,5.35-10.37c4.5-3.58,11.18-4.46,19.93-2.66Z" transform="translate(-23.94 -23.94)" fill="#0f8141"/><path d="M102.61,200.75c6,3.86,7.26,7.37,7.82,10.54.38,2.13-.11,4.62-1.92,5.8-3.11,2-7.73-.31-10-2.56a36.94,36.94,0,0,1-6.2-9,31.26,31.26,0,0,1-2.55,7.76,10.67,10.67,0,0,1-6,5.32c-2.61.8-5.8,0-7.28-2.29-1.61-2.48-.88-5.82.49-8.44s3.33-5,4.21-7.78c-3.5.22-7.16.3-10.32-1.2s-5.64-5-4.78-8.44,5-5.44,8.62-5.05,6.78,2.5,9.7,4.66c-2.46-2.78-5.94-10.66-5-14.24a6.78,6.78,0,0,1,2.17-3.59c2.08-1.64,7.58-1.37,9,.84,1.63,2.45,1.21,9.62,1.68,12.35a49,49,0,0,1,2.9-5c1.55-2.38,4.2-6.25,7.55-6.06a4.25,4.25,0,0,1,.61.08c3.48.71,7,5.12,5.42,8.78-1.85,4.31-8.11,4.2-10,8.6v-.13a35.53,35.53,0,0,1,10.1-4.15,15.2,15.2,0,0,1,6.18-.42,7,7,0,0,1,5,3.34,7.19,7.19,0,0,1,.75,2.53,5,5,0,0,1,0,1.76c-.82,3.37-6.1,4.62-9,4.84-1.68.13-3.37.09-5.06.17C105.51,199.85,103.49,199.65,102.61,200.75Z" transform="translate(-23.94 -23.94)" fill="#f68c1f"/><circle cx="67.25" cy="172.55" r="5.65" fill="#f7ec13"/><path d="M152.34,111.09V180h-3.92V108.87a7.26,7.26,0,0,0,1.77,1.52A5.89,5.89,0,0,0,152.34,111.09Z" transform="translate(-23.94 -23.94)" fill="#0f8141"/><path d="M167.25,78.59l.18.09c1.62.86.82,4.65.54,6a20.32,20.32,0,0,1-2.89,6.83c-2.52,4-8.11,8-10.41,12,6.35-6.22,16.11-11.78,24.4-15a4.65,4.65,0,0,1,2.09-.44c1.75.19,2.71,2.33,2.32,4-1.14,5-7.65,8-12.09,9.17-5.4,1.38-11.32,1.82-15.74,5.21,9.15-1.69,19.74-3,26.76,3.1,1.92,1.68,3.38,4.84,1.55,6.61-1,1-2.56,1-4,1-8-.18-17.62-4.06-25.33-6.29,6.31,5.85,14.81,16.13,12.82,24.5a3,3,0,0,1-1.52,2.27,3,3,0,0,1-2.07-.16c-4.28-1.51-7.5-5.19-9.46-9.28s-3.26-11.76-4.09-16.22c-5,5.75-9.12,16.22-16.17,19.61a4.37,4.37,0,0,1-2.67.58,3.26,3.26,0,0,1-2.38-3.09,7.88,7.88,0,0,1,1.12-4c3-5.87,9.64-12,15.55-14.87-4.46.75-10.5,3.77-15.16,3.15a15.6,15.6,0,0,1-8.32-3.68c-.83-.77-2.28-1.68-2.48-2.94-.27-1.68,1.46-2,2.71-2.33a33.67,33.67,0,0,1,17.29,0,15.34,15.34,0,0,1,4.92,2,40.37,40.37,0,0,1-13-14.79,6.63,6.63,0,0,1-1-3.4,2.53,2.53,0,0,1,2.16-2.46c1.29-.06,2.24,1.17,2.94,2.26a67.71,67.71,0,0,0,11.92,14c-.28-5.2-1.92-7.48-2.1-11.35a21.38,21.38,0,0,1,.85-7.37,11.82,11.82,0,0,1,1.61-3.36c.43-.61,1.42-2,2.34-1.69,2,.75,2.3,3.07,2.28,4.91,0,3.37-.22,6.73-.41,10.09-.1,1.63-.21,3.27-.27,4.91-.05,1.36.32,3,.08,4.3.82-4.5,3.81-9.3,6.08-13.22a58.66,58.66,0,0,1,3.85-6C163,82.2,165.05,77.71,167.25,78.59Z" transform="translate(-23.94 -23.94)" fill="#f06ba8"/><circle cx="126.67" cy="83.34" r="3.29" fill="#f7ec13"/><path d="M150.72,149.35a1.22,1.22,0,0,1-1.49.86,1.13,1.13,0,0,1-.66-.42c-.22,0-.45,0-.66,0a11.07,11.07,0,0,1-3.51-.4,8.86,8.86,0,0,1-3.32-1.82c-3.7-3.18-4.06-8.58-4.09-8.8l-.07-1.42,1.38.13c5.38.43,9.11,2.09,11.11,4.93.16.23.32.49.46.74A8.76,8.76,0,0,1,150.72,149.35Z" transform="translate(-23.94 -23.94)" fill="#0f8141"/><path d="M150.22,158.64a1.22,1.22,0,0,0,1.49.86,1.1,1.1,0,0,0,.66-.43c.22,0,.45,0,.66,0a10.69,10.69,0,0,0,3.5-.41,8.81,8.81,0,0,0,3.33-1.81c3.7-3.18,4.06-8.59,4.09-8.8l.07-1.42-1.38.13c-5.38.42-9.12,2.08-11.11,4.93a6.89,6.89,0,0,0-.46.73A8.79,8.79,0,0,0,150.22,158.64Z" transform="translate(-23.94 -23.94)" fill="#0f8141"/><path d="M235,198.45v47.09h-2.89V196.93a5.39,5.39,0,0,0,1.3,1A4.4,4.4,0,0,0,235,198.45Z" transform="translate(-23.94 -23.94)" fill="#0f8141"/><path d="M236.14,224.36a1.55,1.55,0,0,1-1.62,1.46,1.81,1.81,0,0,1-1-.26c-.28.1-.58.18-.86.26a17.6,17.6,0,0,1-4.77.7,13.88,13.88,0,0,1-5.08-.94c-6.12-2.34-8.69-8.27-8.81-8.5l-.64-1.56,1.86-.31c7.25-1.3,12.82-.68,16.56,1.84a9.8,9.8,0,0,1,.88.68A9.47,9.47,0,0,1,236.14,224.36Z" transform="translate(-23.94 -23.94)" fill="#0f8141"/><path d="M231.32,224.36a1.55,1.55,0,0,0,1.62,1.46,1.81,1.81,0,0,0,1-.26c.27.1.58.18.86.26a17.6,17.6,0,0,0,4.77.7,13.88,13.88,0,0,0,5.08-.94c6.12-2.34,8.69-8.27,8.81-8.5l.64-1.56-1.86-.31c-7.26-1.3-12.82-.68-16.56,1.84a9.8,9.8,0,0,0-.88.68A9.47,9.47,0,0,0,231.32,224.36Z" transform="translate(-23.94 -23.94)" fill="#0f8141"/><path d="M231.55,174.32a3.82,3.82,0,0,0-1.29.77,6.76,6.76,0,0,0-1.08,1.19,23.77,23.77,0,0,0-2.84-6.74l2.37-1.53A26.17,26.17,0,0,1,231.55,174.32Z" transform="translate(-23.94 -23.94)" fill="#f5eb14"/><path d="M237.34,168.94c-.44.75-.85,1.53-1.26,2.3a4.19,4.19,0,0,0-.5,1.11,4.92,4.92,0,0,0-.05.91V174a4.18,4.18,0,0,0-1.11-.26,5,5,0,0,0-1.73.13v-.67a12.34,12.34,0,0,1,.13-1.5,8.08,8.08,0,0,1,.75-1.83c.44-.78.85-1.58,1.29-2.35Z" transform="translate(-23.94 -23.94)" fill="#f5eb14"/><path d="M244.73,169.69a32.82,32.82,0,0,1-2.95,6.56,5.75,5.75,0,0,0-1.6.86,5.42,5.42,0,0,0-1.75,2.73,2.32,2.32,0,0,0,0-.44,9.83,9.83,0,0,0-.31-2.55,33,33,0,0,0,3.95-8Z" transform="translate(-23.94 -23.94)" fill="#f5eb14"/><path d="M244.91,195.21a12.85,12.85,0,0,1-8.63,3.31,4.63,4.63,0,0,1-.82-.05,11.7,11.7,0,0,1-2.33-.34,9.09,9.09,0,0,1-1.91-.72,14,14,0,0,1-3.59-2.32,25.66,25.66,0,0,1-5.66-7.37,21.5,21.5,0,0,1-2.56-8.47c-.15-2.53.52-4.08,2-4.57,2.22-.8,5,1.62,6.71,3.48a11.47,11.47,0,0,1,1.09-1.88,6.76,6.76,0,0,1,1.08-1.19,7.35,7.35,0,0,1,2.43-1.19,5,5,0,0,1,1.73-.13,4.18,4.18,0,0,1,1.11.26,3.79,3.79,0,0,1,1.79,1.29,4.5,4.5,0,0,1,.77,1.53,9.83,9.83,0,0,1,.31,2.55,2.32,2.32,0,0,1,0,.44,5.42,5.42,0,0,1,1.75-2.73,5.75,5.75,0,0,1,1.6-.86,3.9,3.9,0,0,1,2.9.08c2.84,1.19,4.11,5.45,4.42,7.78A12.58,12.58,0,0,1,244.91,195.21Z" transform="translate(-23.94 -23.94)" fill="#3f5ba9"/><rect x="244.82" y="68.81" width="2.88" height="62.27" fill="#0f8141"/><path d="M285.66,123.58c-6.29-1.09-11.09-.55-14.33,1.6l-.59.43v7.09a14.85,14.85,0,0,0,3.94.55,12.54,12.54,0,0,0,4.43-.8,14.35,14.35,0,0,0,7.61-7.27l.55-1.31Z" transform="translate(-23.94 -23.94)" fill="#0f8141"/><path d="M270,130.59c-.18-.14-.36-.28-.56-.41-3.24-2.15-8-2.69-14.32-1.6l-1.62.29.56,1.31a14.3,14.3,0,0,0,7.61,7.27,12.46,12.46,0,0,0,4.43.8,15,15,0,0,0,3.9-.54Z" transform="translate(-23.94 -23.94)" fill="#0f8141"/><path d="M279.25,101.59c4.55,4,5.13,7,5.21,9.76.05,1.81-.67,3.83-2.32,4.59-2.85,1.31-6.41-1.22-8-3.38a31.13,31.13,0,0,1-4.05-8.24,26.11,26.11,0,0,1-3.1,6.15,8.94,8.94,0,0,1-5.62,3.7,5.48,5.48,0,0,1-5.78-2.81c-1-2.27,0-5,1.46-7s3.39-3.73,4.47-6c-2.94-.24-6-.64-8.45-2.28s-4.08-4.9-2.94-7.63,4.85-3.91,7.81-3.13,5.35,2.92,7.51,5.08c-1.7-2.62-3.63-9.62-2.36-12.49a5.8,5.8,0,0,1,2.26-2.72c1.94-1.11,6.49-.2,7.43,1.83,1.05,2.24-.19,8.17-.13,10.5a43,43,0,0,1,3-3.82c1.59-1.79,4.28-4.68,7.05-4.11a2.85,2.85,0,0,1,.5.14c2.82,1,5.2,5.14,3.43,8-2.08,3.35-7.28,2.49-9.45,5.92l0-.11a29.7,29.7,0,0,1,8.93-2.21,12.82,12.82,0,0,1,5.2.41,5.93,5.93,0,0,1,3.77,3.41,6.08,6.08,0,0,1,.31,2.2,4.29,4.29,0,0,1-.26,1.47c-1.1,2.7-5.66,3.09-8.09,2.92-1.42-.1-2.83-.35-4.24-.49C281.77,101.2,280.11,100.78,279.25,101.59Z" transform="translate(-23.94 -23.94)" fill="#f7ec13"/><circle cx="246.32" cy="72.72" r="4.76" fill="#f68c1f"/><path d="M221.65,48V98.6h-2.89V46.36a5.58,5.58,0,0,0,1.3,1.11A4.28,4.28,0,0,0,221.65,48Z" transform="translate(-23.94 -23.94)" fill="#0f8141"/><path d="M232.6,24.1l.13.06c1.19.64.61,3.43.4,4.45a14.8,14.8,0,0,1-2.12,5c-1.86,2.91-6,5.84-7.65,8.85,4.66-4.57,11.84-8.65,17.93-11a3.19,3.19,0,0,1,1.54-.32c1.28.14,2,1.71,1.7,3-.84,3.71-5.62,5.91-8.88,6.74-4,1-8.32,1.34-11.57,3.83,6.72-1.24,14.5-2.22,19.66,2.28,1.42,1.23,2.48,3.55,1.14,4.86a4,4,0,0,1-2.91.74c-5.89-.13-12.95-3-18.61-4.62,4.64,4.3,10.88,11.85,9.42,18a2.22,2.22,0,0,1-1.12,1.67,2.17,2.17,0,0,1-1.52-.12,12.89,12.89,0,0,1-6.95-6.82c-1.44-3-2.39-8.64-3-11.92-3.65,4.23-6.7,11.92-11.88,14.41a3.2,3.2,0,0,1-2,.43,2.39,2.39,0,0,1-1.74-2.27,5.75,5.75,0,0,1,.82-2.94,27.86,27.86,0,0,1,11.43-10.93c-3.28.55-7.72,2.77-11.14,2.31a11.4,11.4,0,0,1-6.12-2.7c-.61-.56-1.68-1.23-1.82-2.16-.2-1.23,1.07-1.44,2-1.71a24.78,24.78,0,0,1,12.71,0,11.28,11.28,0,0,1,3.61,1.48,29.68,29.68,0,0,1-9.58-10.87,4.91,4.91,0,0,1-.71-2.5,1.87,1.87,0,0,1,1.59-1.81c.95,0,1.65.86,2.16,1.67a49.85,49.85,0,0,0,8.76,10.29c-.2-3.82-1.41-5.5-1.54-8.34a15.68,15.68,0,0,1,.62-5.41,8.68,8.68,0,0,1,1.19-2.47c.32-.45,1-1.5,1.72-1.25,1.45.55,1.69,2.26,1.68,3.61,0,2.48-.17,4.95-.31,7.42-.07,1.2-.15,2.4-.2,3.6a22.34,22.34,0,0,1,.06,3.16c.6-3.3,2.81-6.83,4.47-9.71a42.22,42.22,0,0,1,2.83-4.4C229.49,26.76,231,23.46,232.6,24.1Z" transform="translate(-23.94 -23.94)" fill="#ed3155"/><circle cx="196.43" cy="21.25" r="2.41" fill="#f7ec13"/><path d="M220.45,86.1a.89.89,0,0,1-1.09.64.87.87,0,0,1-.49-.32l-.48,0a8,8,0,0,1-2.58-.3,6.54,6.54,0,0,1-2.44-1.33c-2.72-2.34-3-6.31-3-6.47l-.05-1,1,.09c4,.32,6.7,1.54,8.17,3.62a6.26,6.26,0,0,1,.34.55A6.42,6.42,0,0,1,220.45,86.1Z" transform="translate(-23.94 -23.94)" fill="#0f8141"/><path d="M220.09,82.93a.89.89,0,0,0,1.09.63.85.85,0,0,0,.49-.31l.48,0a8.27,8.27,0,0,0,2.58-.3,6.42,6.42,0,0,0,2.44-1.34c2.72-2.34,3-6.31,3-6.47l0-1-1,.09c-4,.31-6.71,1.53-8.17,3.62a6.1,6.1,0,0,0-.34.54A6.45,6.45,0,0,0,220.09,82.93Z" transform="translate(-23.94 -23.94)" fill="#0f8141"/></svg>